<?xml version="1.0" encoding="UTF-8"?>
<svg width="62px" height="64px" viewBox="0 0 62 64" version="1.1" xmlns="http://www.w3.org/2000/svg" xmlns:xlink="http://www.w3.org/1999/xlink">
    <title>Group 6</title>
    <defs>
        <polygon id="path-1" points="1.67655731e-05 0.0793799991 61.2115193 0.0793799991 61.2115193 62.0999822 1.67655731e-05 62.0999822"></polygon>
    </defs>
    <g id="Page-1" stroke="none" stroke-width="1" fill="none" fill-rule="evenodd">
        <g id="Group-6">
            <g id="Group-3" transform="translate(0.000000, 0.010620)">
                <mask id="mask-2" fill="white">
                    <use xlink:href="#path-1"></use>
                </mask>
                <g id="Clip-2"></g>
                <path d="M54.6518154,31.0576226 C54.6735054,29.4132327 54.5054754,27.7911627 54.1758054,26.1901527 C53.1382854,21.1510528 50.8100754,16.7965828 47.0374555,13.2918028 C41.1275155,7.80135291 34.1326256,5.73306293 26.1986757,7.13166292 C20.8127158,8.08116291 16.2859858,10.7136629 12.7022759,14.8432228 C7.67064591,20.6411128 5.76804593,27.4006527 6.91617592,34.9743326 C7.75398591,40.5005125 10.2684959,45.2103025 14.3896858,48.9795024 C20.1035158,54.2052624 26.8538757,56.2302623 34.5090056,55.0537824 C39.4088755,54.3006624 43.6464355,52.1182524 47.1891955,48.6644124 C52.1293854,43.8481525 54.5525454,37.9363226 54.6518154,31.0576226 M28.3672257,0.0793529991 L32.8656056,0.0793529991 C32.9419256,0.100322999 33.0173456,0.134522998 33.0949256,0.140462998 C35.4766856,0.320462996 37.8039056,0.783512991 40.0664155,1.54374298 C46.9075855,3.84252296 52.2945354,8.03796291 56.2332953,14.0730028 C59.0297753,18.3576328 60.6302453,23.0709327 61.0927553,28.1686227 C61.1229953,28.5015327 61.1715053,28.8327327 61.2115553,29.1647427 L61.2115553,32.9236826 C61.1900453,33.0207026 61.1615153,33.1167326 61.1482853,33.2149226 C60.9535253,34.6454726 60.8500253,36.0953726 60.5523053,37.5041426 C59.1726953,44.0324725 56.0200854,49.5753924 51.0999654,54.0865524 C47.2613755,57.6060923 42.7993555,59.9862323 37.7303756,61.2117623 C37.1167556,61.3600823 36.5001656,61.4970623 35.8850156,61.6393523 C32.1699056,62.2077023 29.1099057,62.2977023 25.3477257,61.6393523 C25.2831957,61.6155923 25.2204657,61.5821123 25.1537757,61.5695123 C18.6590158,60.3413723 13.1084458,57.3436523 8.5720859,52.5503424 C3.30546596,46.9851925 0.495665994,40.3260025 0.0527759994,32.6805026 C-0.115973999,29.7670227 0.116945999,26.8736127 0.796805991,24.0322227 C2.74440597,15.8919028 7.19463592,9.48075289 14.1932158,4.88013294 C18.0588958,2.33898297 22.3183257,0.82419299 26.9138157,0.264662997 C27.3986457,0.205622998 27.8827557,0.141272998 28.3672257,0.0793529991" id="Fill-1" fill="#ADB5BD" mask="url(#mask-2)"></path>
            </g>
            <path d="M38.6087936,36.7974806 C38.3155736,36.6658106 38.1018236,36.5698706 37.8734036,36.4672706 C37.7748536,36.6740906 37.6956536,36.8405006 37.5866636,37.0693706 C37.9490036,36.9729806 38.2367336,36.8964806 38.6087936,36.7974806 L38.6087936,36.7974806 Z M23.6685237,37.0937606 C23.5456737,36.8411306 23.4587337,36.6623906 23.3617137,36.4629506 C23.1208737,36.5737406 22.9119837,36.6697706 22.6325337,36.7983806 C22.9987437,36.9027806 23.2896237,36.9856706 23.6685237,37.0937606 L23.6685237,37.0937606 Z M32.2027736,24.4304007 C32.1873836,24.3859407 32.1719036,24.3413907 32.1565136,24.2968407 C31.8241436,24.3317607 31.4914136,24.3625407 31.1596736,24.4025007 C30.7236236,24.4550607 30.6781736,24.5373207 30.8501636,25.0580607 C31.3068236,24.8462007 31.7548436,24.6383007 32.2027736,24.4304007 L32.2027736,24.4304007 Z M27.2894037,34.9402406 C26.6548137,34.4273306 26.3309037,33.7760906 26.0942937,33.0697706 C26.0669337,33.0787706 26.0396637,33.0876806 26.0123937,33.0967706 C26.0921337,33.7805906 26.1719637,34.4643206 26.2539537,35.1677606 C26.6140437,35.0886506 26.9126637,35.0230406 27.2894037,34.9402406 L27.2894037,34.9402406 Z M27.2611437,28.6003707 C27.3678837,28.9777407 27.4811037,29.3116407 27.5547237,29.6540907 C27.6525537,30.1088607 27.8245437,30.4910006 28.3014537,30.6586706 C28.5917937,30.7606406 28.7537937,30.7062806 28.8668337,30.4260206 C29.0674437,29.9282307 29.0246937,29.4227007 28.8730437,28.9219407 C28.8565737,28.8675807 28.7879037,28.7977407 28.7356137,28.7902707 C28.2317037,28.7185407 27.7261737,28.6586907 27.2611437,28.6003707 L27.2611437,28.6003707 Z M24.8105337,22.3987407 C25.2356037,22.6413807 25.5756237,22.8473907 25.9288737,23.0273007 C26.0001537,23.0636607 26.1450537,23.0331507 26.2162437,22.9800507 C27.1112937,22.3128807 27.9990537,21.6360807 28.8884337,20.9612608 C28.9451337,20.9181508 28.9989537,20.8713508 29.0541237,20.8262608 C27.5541837,21.0532408 26.2034637,21.6398607 24.8105337,22.3987407 L24.8105337,22.3987407 Z M36.4275536,22.3978407 C35.0358836,21.6431907 33.6848936,21.0502708 32.2352636,20.7818908 C33.1778336,21.5316808 34.1193236,22.2823707 35.0650436,23.0276607 C35.1105836,23.0634807 35.2094036,23.0832807 35.2554836,23.0584407 C35.6288936,22.8572907 35.9954636,22.6437207 36.4275536,22.3978407 L36.4275536,22.3978407 Z M33.3435236,24.0758907 C33.2810636,24.6487407 33.2190536,25.1628207 33.1761236,25.6784307 C33.1705436,25.7445807 33.2500136,25.8362907 33.3134636,25.8868707 C33.8038736,26.2769307 33.8912636,26.6088507 33.6462836,27.1771107 C33.6160436,27.2471307 33.5743736,27.3358707 33.5933636,27.3993207 C33.6751736,27.6727407 33.7775936,27.9399507 33.8871236,28.2508107 C34.1611736,28.1961807 34.5059636,28.1275107 34.8803636,28.0528107 C34.5694136,26.6409807 34.0678436,25.3420107 33.3435236,24.0758907 L33.3435236,24.0758907 Z M31.3279736,20.7884608 C32.0211536,21.7204107 32.7079436,22.6470507 33.4016636,23.5685607 C33.4458536,23.6272407 33.5588036,23.6917707 33.6149636,23.6743107 C34.0295036,23.5448007 34.4376536,23.3950407 34.8861236,23.2383507 C34.7861336,23.1182907 34.7279936,23.0369307 34.6586036,22.9666407 C33.9156536,22.2134307 33.1052036,21.5443708 32.2179836,20.9645908 C31.9198136,20.7696508 31.6198436,20.7433708 31.3279736,20.7884608 L31.3279736,20.7884608 Z M29.9083137,20.7886408 C29.5954737,20.7334708 29.2704837,20.7609208 28.9857237,20.9927608 C28.2232437,21.6134907 27.4582437,22.2312507 26.6989137,22.8559407 C26.5784937,22.9551207 26.4825537,23.0841807 26.3388237,23.2384407 C26.7926937,23.3940507 27.1863537,23.5370607 27.5865837,23.6582907 C27.6551637,23.6790807 27.7862037,23.6324607 27.8307537,23.5735107 C28.5274437,22.6513707 29.2145937,21.7221207 29.9083137,20.7886408 L29.9083137,20.7886408 Z M28.4044137,39.6602005 C28.6998837,40.2920005 28.9320837,40.8600805 29.2250337,41.3947705 C29.5142037,41.9225305 29.9683437,42.3193405 30.4653236,42.7802305 C30.4653236,41.6823205 30.4691036,40.6710805 30.4558736,39.6600205 C30.4550636,39.5989105 30.3143036,39.4831705 30.2458136,39.4882105 C29.6263437,39.5338405 29.0084937,39.6008005 28.4044137,39.6602005 L28.4044137,39.6602005 Z M32.8358336,39.6656905 C32.2441736,39.6122305 31.6439636,39.5683105 31.0467236,39.4987405 C30.8228936,39.4727305 30.7605236,39.5351005 30.7625936,39.7542505 C30.7715936,40.6872805 30.7657436,41.6204005 30.7679036,42.5535205 C30.7680836,42.6171505 30.7889636,42.6807805 30.8154236,42.8300905 C31.2500336,42.3255505 31.6922036,41.9140705 32.0054036,41.4205105 C32.3351636,40.9010305 32.5415336,40.3032505 32.8358336,39.6656905 L32.8358336,39.6656905 Z M30.7673636,20.7397708 C30.7673636,21.8500107 30.7636736,22.8626007 30.7763636,23.8749207 C30.7770836,23.9388207 30.9075836,24.0563607 30.9757136,24.0550222 C31.3333736,24.0475407 31.6905836,24.0119907 32.0475236,23.9819307 C32.4005036,23.9522307 32.7509636,23.9159607 32.8520336,23.4782907 C32.8583336,23.4507507 32.9074736,23.4331107 32.9524736,23.3990007 C32.3232836,22.4570607 31.6634936,21.5639008 30.7673636,20.7397708 L30.7673636,20.7397708 Z M26.9567637,38.3768006 C26.6342937,37.4393606 26.3229837,36.5343206 25.9974537,35.5880606 C25.2494637,35.8282706 24.4862637,36.0734306 23.6979537,36.3266906 C23.8060437,36.5455706 23.9114337,36.7125206 23.9727237,36.8942306 C24.0649737,37.1676506 24.2490237,37.2830306 24.5192937,37.3576406 C25.3679037,37.5920906 26.2032837,37.8682106 26.9567637,38.3768006 L26.9567637,38.3768006 Z M37.5542636,36.3099506 C36.7281536,36.0721706 35.9959136,35.7265706 35.2230836,35.6795006 C34.8993536,36.5911106 34.5902036,37.4618606 34.2526136,38.4126206 C35.1290336,37.8038606 36.0931136,37.5905606 37.0070636,37.2510806 C37.0587236,37.2319106 37.1108336,37.1812406 37.1371136,37.1316506 C37.2710336,36.8798306 37.3964036,36.6234206 37.5542636,36.3099506 L37.5542636,36.3099506 Z M28.0509837,23.8187607 C28.8044637,23.9063307 29.4897237,23.9830107 30.1739937,24.0672507 C30.4078136,24.0961407 30.4730636,24.0011007 30.4705436,23.7752907 C30.4605536,22.8539607 30.4669436,21.9325407 30.4650536,21.0111208 C30.4649636,20.9465908 30.4463336,20.8821508 30.4285136,20.7674008 C29.5185237,21.6905307 28.7030337,22.6199607 28.0509837,23.8187607 L28.0509837,23.8187607 Z M31.6913036,33.2118806 C32.1156536,33.5366006 32.5749236,33.6611606 33.0484136,33.5780906 C33.5569136,33.4888106 34.0497536,33.3099806 34.5494336,33.1704806 C35.2237136,32.9822906 35.2237136,32.9824706 35.2112936,32.2730906 C35.2104836,32.2321406 35.2264136,32.1782306 35.2062536,32.1527606 C35.1468536,32.0776106 35.0743136,31.9554806 35.0049236,31.9543106 C34.2267836,31.9401806 33.4469336,31.9211006 32.6706836,31.9633106 C32.4862736,31.9733006 32.1507536,32.2279106 32.1647036,32.3326706 C32.2206836,32.7528806 32.0456336,32.9972306 31.6913036,33.2118806 L31.6913036,33.2118806 Z M34.9561436,28.4120007 C34.5251336,28.4879607 34.1246336,28.5612207 33.7230536,28.6281807 C33.4955336,28.6661607 33.4049936,28.7364507 33.5247836,28.9922307 C33.7108136,29.3895807 33.6174836,29.7393207 33.2647736,29.9959107 C33.1015136,30.1148007 33.0783836,30.2286506 33.1097036,30.4058606 C33.1530836,30.6501206 33.1227536,30.9067106 32.8833536,31.0256006 C32.6161436,31.1582606 32.6571836,31.3424906 32.7046136,31.5719906 L35.1902336,31.5719906 C35.2091336,30.5044106 35.1788036,29.4599607 34.9561436,28.4120007 L34.9561436,28.4120007 Z M38.4991736,31.9676306 L35.5829036,31.9676306 L35.5829036,32.9539406 C36.3220736,32.9912006 37.0445936,33.0275606 37.7670236,33.0640106 C37.7699036,33.0979406 37.7726036,33.1318706 37.7753036,33.1656206 C37.5541736,33.3291506 37.3453736,33.5134706 37.1094836,33.6515306 C36.6539936,33.9179306 36.2175836,34.1988206 35.9183336,34.6491806 C35.7816236,34.8551906 35.6396936,35.0576906 35.4816536,35.2886306 C36.2489036,35.5400906 36.9521636,35.7705806 37.6799036,36.0090806 C38.2473536,34.7068706 38.4260936,33.3608306 38.4991736,31.9676306 L38.4991736,31.9676306 Z M28.7031237,28.4570907 C28.6194237,28.1976207 28.5518337,28.0061907 28.4956737,27.8114307 C28.1594337,26.6456607 28.5313137,25.8550107 29.6456937,25.3786407 C29.8617837,25.2863007 30.0918237,25.2270807 30.3111536,25.1415807 C30.6073436,25.0261107 30.4229336,24.7689807 30.4515536,24.5789007 C30.4576736,24.5378607 30.3103436,24.4380507 30.2243036,24.4243707 C29.5367037,24.3150207 28.8446937,24.2322207 28.1588937,24.1131507 C27.9443337,24.0759807 27.8505537,24.1361907 27.7570437,24.3155607 C27.2342337,25.3180707 26.8027737,26.3559507 26.5068537,27.4482807 C26.4545637,27.6414207 26.4125337,27.8372607 26.3565537,28.0703607 C27.1539537,28.2017607 27.9053637,28.3256007 28.7031237,28.4570907 L28.7031237,28.4570907 Z M37.5478736,27.2434407 C37.4253836,26.9874807 37.3380836,26.7929007 37.2406136,26.6035407 C36.7093436,25.5715107 36.1328036,24.5678307 35.3567336,23.6949207 C35.2815836,23.6103207 35.1440636,23.4845907 35.0756636,23.5060107 C34.6028936,23.6544207 34.1407436,23.8368507 33.7343036,23.9865207 C34.2532436,25.3090707 34.7634536,26.6088507 35.2880636,27.9455307 C35.9809736,27.7301607 36.7387736,27.4948107 37.5478736,27.2434407 L37.5478736,27.2434407 Z M23.6896737,27.2429007 C24.5041737,27.4958007 25.2618837,27.7311507 26.0483937,27.9754107 C26.3584437,26.5504407 26.9521737,25.2763107 27.5711937,24.0063207 C27.1570137,23.8556607 26.7667737,23.7321807 26.3928237,23.5709007 C26.1652137,23.4727107 26.0276937,23.5132107 25.8683037,23.6973507 C25.1314737,24.5492007 24.5658237,25.5096807 24.0498537,26.5031007 C23.9332137,26.7276507 23.8280037,26.9579607 23.6896737,27.2429007 L23.6896737,27.2429007 Z M25.8381537,23.3666007 C25.4770737,23.1340407 25.1278737,22.9361307 24.8115237,22.6952007 C24.6235137,22.5520107 24.4904937,22.5676707 24.3300237,22.7040207 C23.7133437,23.2278207 23.0739837,23.7272307 22.4838537,24.2793807 C21.9606837,24.7688907 21.5276938,25.3428207 21.1656238,26.0230407 C21.9052437,26.3903307 22.6222737,26.7462807 23.3555037,27.1103307 C24.0030537,25.6984107 24.8306937,24.4723407 25.8381537,23.3666007 L25.8381537,23.3666007 Z M35.4032636,23.3709207 C36.4170236,24.4782807 37.2398936,25.7167707 37.8880736,27.1133007 C38.6307536,26.7417807 39.3402235,26.3868207 40.0349335,26.0393307 C40.0244935,25.9666107 40.0274635,25.9431207 40.0180135,25.9268307 C39.2180935,24.5486607 38.0736536,23.5079007 36.7704536,22.6253607 C36.7187936,22.5903507 36.6067436,22.5867507 36.5546336,22.6193307 C36.1739336,22.8574707 35.8015136,23.1086607 35.4032636,23.3709207 L35.4032636,23.3709207 Z M25.6342137,31.5872906 C25.6596837,31.1345906 25.6632837,30.7045706 25.7138637,30.2801306 C25.7588637,29.9030307 25.6511337,29.6137707 25.3453137,29.3991207 C25.1321037,29.2495407 24.9115137,29.1103107 24.6708537,28.9510107 C25.1797137,28.8755907 25.6375437,28.7650707 25.9308537,28.3277607 C25.1477637,28.0709007 24.3722337,27.8165607 23.5656537,27.5519607 C22.9842537,28.8373407 22.7898537,30.1867107 22.7353137,31.5872906 L25.6342137,31.5872906 Z M38.5246436,31.5798206 C38.4458036,30.9259706 38.4053936,30.2918306 38.2847036,29.6733507 C38.1597836,29.0329107 37.9637636,28.4055207 37.7797136,27.7780407 C37.7550536,27.6938007 37.5949436,27.5688807 37.5367136,27.5872407 C36.7778336,27.8260107 36.0260636,28.0873707 35.3088536,28.3306407 C35.4176636,29.4236007 35.5248536,30.5001806 35.6324936,31.5798206 L38.5246436,31.5798206 Z M25.9203237,35.2261706 C25.8169137,34.1245706 25.7161137,33.0496106 25.6151337,31.9742006 L22.7309037,31.9742006 C22.8272937,33.3761306 22.9890237,34.7285606 23.5661937,36.0076406 C24.3756537,35.7389006 25.1583837,35.4791606 25.9203237,35.2261706 L25.9203237,35.2261706 Z M30.4502936,36.1893506 C29.6913237,36.1442606 28.9460337,36.0767606 28.3551837,35.6555606 C27.7822437,35.2469606 27.2377437,35.2891706 26.6306937,35.4400106 C26.4269337,35.4905906 26.3373837,35.5443206 26.4179337,35.7628406 C26.7858537,36.7604006 27.1256037,37.7691206 27.5214237,38.7554306 C27.7411137,39.3027205 28.0872537,39.4403305 28.6561437,39.3365605 C28.7567637,39.3182905 28.8576537,39.3001105 28.9590837,39.2870605 C29.4539037,39.2237905 29.9489937,39.1622305 30.4502936,39.0993205 L30.4502936,36.1893506 Z M34.8642536,35.5728506 C34.7856836,35.5440506 34.7404136,35.5215506 34.6923536,35.5108406 C34.0105136,35.3582006 33.3531536,35.4700706 32.6956136,35.6694206 C32.1192536,35.8441106 31.5294836,35.9745206 30.9513236,36.1440806 C30.8727536,36.1671206 30.7769036,36.3021206 30.7746536,36.3875306 C30.7590836,36.9719006 30.7663736,37.5569006 30.7662836,38.1418106 L30.7662836,39.0851905 C31.4111336,39.1769005 32.0325836,39.2112805 32.6226236,39.3657205 C33.1381436,39.5006305 33.3748436,39.2134405 33.6398036,38.9031205 C33.6850736,38.8501105 33.7134236,38.7797306 33.7394336,38.7134006 C34.0634336,37.8855806 34.3910336,37.0590206 34.7041436,36.2270606 C34.7818136,36.0208706 34.8109736,35.7965006 34.8642536,35.5728506 L34.8642536,35.5728506 Z M38.0137136,36.1312106 C38.6024936,36.4913906 39.1660735,36.7990106 39.8582635,36.4637606 C40.0663435,36.3630506 40.3188835,36.3564806 40.5330835,36.2645906 C40.6648435,36.2080706 40.8299035,36.0907106 40.8643735,35.9682206 C41.1130435,35.0833406 41.3518135,34.1945006 41.5522435,33.2976506 C41.6484535,32.8671806 41.6548435,32.4165506 41.7022735,31.9711406 L38.7786236,31.9711406 C38.7855536,33.4234706 38.5103336,34.8009206 38.0137136,36.1312106 L38.0137136,36.1312106 Z M23.2364337,36.1519106 C22.6910337,34.7918306 22.5008637,33.3980906 22.4501937,31.9634006 L19.5463438,31.9634006 C19.5678538,32.2140506 19.5822538,32.4458006 19.6084438,32.6762906 C19.7358838,33.7989506 19.9294738,34.9079306 20.3583238,35.9603006 C20.4084538,36.0832406 20.5358938,36.2211206 20.6572138,36.2602706 C21.0949738,36.4018406 21.5441638,36.5093006 21.9920037,36.6173006 C22.0839837,36.6394406 22.1997237,36.6339506 22.2856737,36.5970506 C22.5950037,36.4645706 22.8962337,36.3131906 23.2364337,36.1519106 L23.2364337,36.1519106 Z M41.7012835,31.5830606 C41.5331635,29.7100707 41.2085335,27.9241107 40.2430135,26.2925007 C39.4790935,26.6775207 38.7511736,27.0444507 38.0088536,27.4186707 C38.5368836,28.7595807 38.7600836,30.1460307 38.7811436,31.5830606 L41.7012835,31.5830606 Z M23.1953037,27.3787107 C22.4801637,27.0253707 21.7370337,26.6581707 20.9795938,26.2840407 C20.0246038,27.9592107 19.6758538,29.7407607 19.5354538,31.5955706 L22.4252637,31.5955706 C22.5032937,30.8665706 22.5383937,30.1576407 22.6646637,29.4652707 C22.7905737,28.7745207 23.0077437,28.1004207 23.1953037,27.3787107 L23.1953037,27.3787107 Z M26.2477437,16.5401008 C26.2715937,16.5062608 26.2955337,16.4724208 26.3193837,16.4384908 C26.4506037,16.5158908 26.5753437,16.6103908 26.7156537,16.6641208 C26.7950337,16.6944508 26.9487537,16.6940008 26.9848437,16.6451308 C27.1238037,16.4573008 27.2382837,16.2488608 27.3400737,16.0376308 C27.3670737,15.9814708 27.3423237,15.8467408 27.2972337,15.8183908 C27.0468537,15.6612508 26.7828837,15.5257108 26.5073037,15.3737908 C26.5625637,14.9606008 26.0906937,14.9798608 25.8592137,14.7858208 C25.8040437,14.7395608 25.5456537,14.8098508 25.5131637,14.8843708 C25.3908537,15.1648108 24.9476937,15.3831508 25.2889737,15.7727608 C24.8910837,15.8393608 24.8560737,16.2217708 24.6982137,16.4878108 C24.6710337,16.5337108 24.7808337,16.7098408 24.8664237,16.7635708 C25.0520037,16.8800308 25.2856437,17.0586808 25.4570937,17.0204308 C25.6313337,16.9817308 25.7543637,16.7129908 25.9514637,16.4853808 C25.9317537,16.6226308 25.9300437,16.6811308 25.9144737,16.7356708 C25.7361837,17.3584708 24.5822037,17.7156808 23.9450937,17.2135708 C23.8673337,17.1522808 23.8484337,16.9793008 23.8525737,16.8597808 C23.8587837,16.6782508 23.9377137,16.4976208 23.9342937,16.3175308 C23.9279037,15.9802108 23.6106537,15.7317208 23.2833237,15.7760908 C23.0107137,15.8129908 22.8102837,16.0889308 22.8929037,16.3993408 C22.9419537,16.5834808 23.0831637,16.7514208 23.2103337,16.9037908 C23.3156337,17.0300608 23.5191237,17.0822608 23.4483837,17.3151808 C23.3713437,17.5686208 23.2354437,17.7694108 22.9657137,17.8204408 C22.5612537,17.8969408 22.2098037,17.7631108 21.9072237,17.4844708 C22.0753437,17.4927508 22.2519237,17.6099308 22.3858437,17.5728508 C22.7420637,17.4743008 22.7032737,17.0876608 22.8161337,16.8200008 C22.8461037,16.7489008 22.7304537,16.5505408 22.6355037,16.5032908 C22.0171137,16.1959408 22.0044237,16.2049408 21.6671937,16.5888808 C21.6671937,16.5230908 21.6579237,16.4750308 21.6685437,16.4319208 C21.8201937,15.8182108 21.8208237,15.8183908 21.2282638,15.6005908 C21.1898338,15.5863708 21.1516738,15.5585608 21.1135138,15.5586508 C21.0144238,15.5591008 20.9154238,15.5715208 20.8164238,15.5792608 C20.8308238,15.6718708 20.8249738,15.7737508 20.8625938,15.8556508 C21.7405437,17.7632008 22.6230837,19.6686808 23.5055337,21.5742507 C23.5420737,21.6530907 23.5858137,21.7287807 23.6277537,21.8088807 C28.3117137,19.2032908 32.9700236,19.1096908 37.6367936,21.8014107 C37.9933736,20.9944708 38.3288036,20.2026508 38.6910536,19.4233408 C39.2483335,18.2246308 39.8253235,17.0351908 40.3889035,15.8394508 C40.4239135,15.7652008 40.4342635,15.6665608 40.4176135,15.5874508 C40.4114935,15.5582008 40.2819835,15.5210308 40.2295135,15.5412808 C39.9746335,15.6397408 39.6874435,15.7130008 39.4949335,15.8870608 C39.4132135,15.9608608 39.5361535,16.2598408 39.5637835,16.4567608 C39.5672035,16.4813308 39.5570335,16.5077008 39.5519935,16.5412708 C39.2869435,16.2080908 39.1640935,16.2067408 38.5961936,16.5058108 C38.4402236,16.5879808 38.3468936,16.6948108 38.4215036,16.8747208 C38.5148336,17.0997208 38.5697336,17.3790808 38.7375836,17.5211908 C38.8464835,17.6134408 39.1275535,17.5024708 39.3285235,17.4828508 C39.0560035,17.8100908 38.5115936,17.9450008 38.1416036,17.7745408 C37.7177936,17.5792408 37.6773836,17.1850408 38.0329736,16.8911008 C38.1609536,16.7852608 38.2752536,16.6359508 38.3369936,16.4827708 C38.4388736,16.2303208 38.3049536,15.9289108 38.0862536,15.8202808 C37.8549536,15.7054408 37.5194336,15.7960708 37.4026136,16.0607608 C37.3269236,16.2321208 37.3353836,16.4494708 37.3405136,16.6452208 C37.3461836,16.8574408 37.4287136,17.0726308 37.2144236,17.2388608 C36.6916136,17.6443108 35.6693036,17.4393808 35.3684336,16.8589708 C35.3267636,16.7786908 35.3317136,16.6742008 35.3149736,16.5808708 C35.8150136,17.1251008 35.8128536,17.1215008 36.3820136,16.7731108 C36.5333936,16.6804108 36.6160136,16.5975208 36.5240336,16.4061808 C36.2407136,15.8169508 36.1499936,15.7484608 35.7403136,15.8888608 C35.8907036,15.7343308 36.2313536,15.6700708 36.0258836,15.3770308 C35.8633436,15.1451908 35.8506536,14.7216508 35.4421436,14.7583708 C35.1053636,14.7886108 34.7414036,15.1866808 34.7411336,15.3404908 C34.4307236,15.5366908 34.1213036,15.6689908 33.9183536,15.8963308 C33.8518436,15.9708508 34.0589336,16.2930508 34.1454236,16.5001408 C34.2539636,16.7599708 34.4206436,16.7638408 34.6310636,16.6125508 C34.7199836,16.5484708 34.8253736,16.5072508 34.9232936,16.4555908 C34.9426436,16.4891608 34.9619036,16.5227308 34.9811636,16.5563908 C34.8584936,16.6308208 34.7441036,16.7285608 34.6117136,16.7758108 C34.0359836,16.9813708 33.5779736,16.7219008 33.1403936,16.3847608 C32.9312336,16.2236608 32.9090036,16.0835308 33.1182536,15.8939908 C33.3918536,15.6460408 33.5134436,15.3206008 33.4656536,14.9511508 C33.4372136,14.7308308 33.3575636,14.5196008 33.0981836,14.4778408 C32.8430336,14.4367108 32.6296436,14.5625308 32.5514336,14.7841108 C32.4708836,15.0126208 32.4694436,15.2727208 32.4587336,15.5201308 C32.4545936,15.6150808 32.5190336,15.7136308 32.5548536,15.8094808 C32.6215436,15.9875908 32.5648436,16.0890208 32.3722436,16.1028808 C31.8199136,16.1424808 31.3304936,15.9992008 31.0632836,15.4856608 C30.9016436,15.1749808 30.8379236,14.8123708 30.7422536,14.4697408 C30.7267736,14.4143908 30.7683536,14.2892008 30.7930136,14.2865908 C30.8641136,14.2791208 30.9531236,14.2999108 31.0115336,14.3421208 C31.1522936,14.4436408 31.2651536,14.6300308 31.4153636,14.6628808 C31.7594336,14.7381208 31.8701336,14.3723608 32.0860436,14.2063108 C32.1786536,14.1351208 32.2769336,13.9087708 32.2366136,13.8552208 C32.0549936,13.6136608 31.8493436,13.3686808 31.5977936,13.2132508 C31.5139136,13.1614108 31.2674936,13.3730908 31.0951436,13.4638108 C31.0738136,13.4749708 31.0509536,13.4830708 31.0289036,13.4926108 C31.0100036,13.4709208 30.9910136,13.4493208 30.9721136,13.4277208 C31.0610336,13.3622908 31.1515736,13.2990208 31.2384236,13.2311608 C31.4617136,13.0568308 31.4383136,12.8895209 31.2481436,12.6940409 C30.6428036,12.0720509 30.7516136,11.9728709 30.0364737,12.6883709 C30.0219837,12.7028609 30.0083937,12.7185209 29.9929137,12.7318409 C29.8295637,12.8717009 29.8563837,13.0109308 29.9893137,13.1549308 C30.0839037,13.2574408 30.1729137,13.3652608 30.2643536,13.4706508 C29.6759337,13.0760908 29.6759337,13.0760908 29.1818337,13.6030408 C29.1537537,13.6329208 29.1250437,13.6623508 29.0954337,13.6908808 C28.9313637,13.8495508 28.9212837,14.0042608 29.0981337,14.1636508 C29.2429437,14.2940608 29.3825337,14.4304108 29.5225737,14.5661308 C29.6647737,14.7041908 29.8005837,14.7114808 29.9534937,14.5743208 C30.0941637,14.4481408 30.2495036,14.3383408 30.4090736,14.2128808 C30.6627836,15.1224208 29.9704137,16.0881208 29.0908437,16.1068408 C28.6075437,16.1171908 28.5677637,16.0605808 28.7407437,15.6166108 C28.8724137,15.2784808 28.8736737,14.9484508 28.6252737,14.6627008 C28.3209837,14.3125108 27.9601737,14.3949508 27.8042937,14.8280308 C27.6615537,15.2248408 27.8218437,15.5260708 28.0788837,15.8042608 C28.2560037,15.9957808 28.3215237,16.2006208 28.0975137,16.3914208 C27.6506637,16.7718508 27.1456737,16.9599508 26.5605837,16.7594308 C26.4448437,16.7197408 26.3514237,16.6148908 26.2477437,16.5401008 L26.2477437,16.5401008 Z M29.6232837,49.0913004 C29.6357937,48.9649404 29.6482137,48.8978904 29.6482137,48.8308404 C29.6491579,47.2085905 29.6502837,45.5862505 29.6461437,43.9640005 C29.6458737,43.8434905 29.6238237,43.7166805 29.5823337,43.6036405 C29.3106237,42.8633905 29.0134437,42.1320505 28.7574837,41.3865805 C28.3244937,40.1257705 27.4355637,39.2624005 26.2951737,38.6813606 C25.4980437,38.2751906 24.6379137,37.9680206 23.7763437,37.7183606 C22.2033237,37.2625106 20.6096038,36.8774906 19.0220038,36.4729406 C18.5044138,36.3410006 18.0448738,36.5165006 17.8349938,36.8903606 C17.6001838,37.3085906 17.6662438,37.8680306 18.0567538,38.2154306 C18.2780638,38.4123506 18.5622838,38.5704806 18.8454238,38.6606606 C19.9476538,39.0115705 21.0628438,39.3215305 22.1685837,39.6618205 C22.4703537,39.7547005 22.7589837,39.8933905 23.0475237,40.0245205 C23.2579437,40.1201905 23.3641437,40.2839005 23.2843137,40.5237505 C23.2088937,40.7501905 23.0243937,40.7567605 22.8312537,40.7390305 C22.7803137,40.7343505 22.7283837,40.7296705 22.6796037,40.7157205 C22.0799337,40.5440005 21.4761238,40.3852405 20.8825738,40.1942605 C19.9083238,39.8808805 18.9397438,39.5495005 17.9708038,39.2196505 C17.1944638,38.9553205 16.8771238,38.4038006 16.9025038,37.5903806 C16.9320238,36.6451106 17.1820438,35.7508706 17.4328738,34.8524906 C17.9092438,33.1460906 18.3892138,31.4405906 18.8526238,29.7305907 C19.0580938,28.9723407 18.4303438,28.2025707 17.6954938,28.3066107 C17.1470338,28.3843707 16.8711838,28.7915307 16.7395138,29.2776207 C16.1319238,31.5216806 15.5178538,33.7644806 14.9532838,36.0195206 C14.4966238,37.8435506 14.6972338,39.5993605 15.8137738,41.1578905 C16.5798538,42.2274505 17.6426638,42.9729205 18.7968238,43.5854605 C20.1456538,44.3013205 21.6104037,44.6466505 23.1004437,44.8917205 C25.7742537,45.3314605 27.9383937,46.5686905 29.4398637,48.8701704 C29.4810837,48.9332604 29.5363437,48.9872604 29.6232837,49.0913004 L29.6232837,49.0913004 Z M31.6002236,49.0608804 C31.6580936,49.0328904 31.6820336,49.0290204 31.6922936,49.0150704 C31.7777936,48.8996004 31.8618536,48.7831404 31.9439336,48.6652404 C33.0386936,47.0924905 34.4573636,45.9291505 36.3006536,45.3625105 C37.2081236,45.0836005 38.1485336,44.9046805 39.0812935,44.7168505 C40.8854335,44.3535205 42.5525035,43.7017405 44.0252635,42.5679205 C46.0688035,40.9948105 46.8192235,38.9332705 46.3634635,36.4315406 C46.1803135,35.4261506 45.8877235,34.4399306 45.6278035,33.4494806 C45.2639335,32.0627606 44.8919635,30.6780206 44.5065835,29.2971507 C44.3712235,28.8121407 44.1061735,28.3989507 43.5625735,28.3086807 C42.8275435,28.1867307 42.1794535,28.9526307 42.3842035,29.7084507 C42.9225835,31.6955606 43.4793235,33.6778106 44.0280535,35.6621306 C44.2285735,36.3872606 44.3538535,37.1216606 44.3217235,37.8788306 C44.2982335,38.4288206 44.0788135,38.8460605 43.5629335,39.0792505 C43.3203835,39.1888705 43.0824235,39.3146005 42.8306035,39.3974905 C41.6248735,39.7948405 40.4160835,40.1829205 39.2059435,40.5667705 C38.9822035,40.6376905 38.7491036,40.6823305 38.5173536,40.7229205 C38.2920836,40.7625205 38.0472836,40.8013105 37.9500836,40.5108805 C37.8500036,40.2121705 38.0624036,40.0843705 38.2803836,39.9708805 C38.3438336,39.9378505 38.4097136,39.9068005 38.4778436,39.8855605 C39.7777135,39.4806505 41.0803735,39.0842005 42.3764635,38.6675006 C42.6339535,38.5847006 42.8931535,38.4595106 43.1051935,38.2944506 C43.5306235,37.9630706 43.6433935,37.3906706 43.4210935,36.9341006 C43.2202135,36.5218106 42.7609435,36.3363206 42.2022235,36.4778906 C40.6929235,36.8605706 39.1775935,37.2239006 37.6834136,37.6589606 C36.7628036,37.9270706 35.8475036,38.2515206 34.9823336,38.6613806 C33.9422936,39.1539505 33.1057436,39.9246205 32.6399036,41.0052505 C32.2833236,41.8321705 31.9932536,42.6882505 31.6854536,43.5356905 C31.6240736,43.7048905 31.5887936,43.8934405 31.5878936,44.0731705 C31.5804236,45.6236905 31.5832136,47.1743005 31.5842936,48.7248204 C31.5842936,48.8311104 31.5941036,48.9374004 31.6002236,49.0608804 L31.6002236,49.0608804 Z M53.9194134,30.5527406 C53.8217634,37.3083206 51.7316934,42.7664605 47.4496735,47.3342305 C43.8726235,51.1501404 39.4841335,53.5537704 34.3123736,54.3365004 C26.8380537,55.4678004 20.2672438,53.4305604 14.7292738,48.2733804 C11.0031839,44.8034305 8.6431139,40.5105205 7.76759391,35.5011206 C6.37745393,27.5473707 8.4053339,20.5244908 13.9514938,14.6169808 C17.4854338,10.8528209 21.8635737,8.5300109 26.9693637,7.76933091 C34.4460236,6.65549092 41.0157535,8.7022709 46.5404935,13.8741208 C50.4385734,17.5232608 52.7549034,22.0562007 53.6021634,27.3230907 C53.8002534,28.5544707 53.8492134,29.8098807 53.9194134,30.5527406 L53.9194134,30.5527406 Z" id="Fill-4" fill="#ADB5BD"></path>
        </g>
    </g>
</svg>